<svg xmlns="http://www.w3.org/2000/svg" x="0" y="0" width="69" height="51" viewBox="0 0 69 51" xml:space="preserve">
  <path fill="#FFFFFF" d="M29.4 36.1c0 3.9-1.4 7.2-4.1 9.9s-6 4.1-9.9 4.1-7.2-1.4-9.9-4.1c-2.7-2.7-4.1-6-4.1-9.9V16.5c0-4.5 1.4-8.3 4.3-11.2S12.3.9 16.8.9H27v10.8h-9.4c-3.6 0-5.4 2-5.4 6v5c.9-.4 2.1-.6 3.4-.6 3.7 0 7 1.4 9.7 4.1s4.1 6 4.1 9.9zM39.8 14.9c0-3.9 1.4-7.2 4.1-9.9 2.7-2.7 6-4.1 9.9-4.1S61 2.3 63.7 5c2.7 2.7 4.1 6 4.1 9.9v19.6c0 4.5-1.4 8.3-4.3 11.2-2.9 2.9-6.6 4.4-11.1 4.4H42.2V39.3h9.4c3.6 0 5.4-2 5.4-6v-5c-1.1.4-2.2.6-3.4.6-3.7 0-7-1.4-9.7-4.1-2.7-2.7-4.1-6-4.1-9.9z"/>
</svg>